<svg viewBox="0 0 160 100" aria-hidden="true">
  <g stroke="rgba(0,0,0,.18)" stroke-width="1">
    <rect x="56" y="10" width="14" height="14" rx="3" fill="#c084fc"/>
    <rect x="42" y="24" width="14" height="14" rx="3" fill="#c084fc"/>
    <rect x="56" y="24" width="14" height="14" rx="3" fill="#c084fc"/>
    <rect x="70" y="24" width="14" height="14" rx="3" fill="#c084fc"/>
    <rect x="40" y="76" width="14" height="14" rx="3" fill="#67e8f9"/>
    <rect x="54" y="76" width="14" height="14" rx="3" fill="#67e8f9"/>
    <rect x="68" y="76" width="14" height="14" rx="3" fill="#67e8f9"/>
    <rect x="82" y="76" width="14" height="14" rx="3" fill="#67e8f9"/>
    <rect x="96" y="76" width="14" height="14" rx="3" fill="#fde047"/>
    <rect x="110" y="76" width="14" height="14" rx="3" fill="#fde047"/>
    <rect x="96" y="62" width="14" height="14" rx="3" fill="#fde047"/>
    <rect x="110" y="62" width="14" height="14" rx="3" fill="#fde047"/>
    <rect x="40" y="62" width="14" height="14" rx="3" fill="#fb923c"/>
    <rect x="54" y="62" width="14" height="14" rx="3" fill="#fb923c"/>
    <rect x="68" y="62" width="14" height="14" rx="3" fill="#fb923c"/>
    <rect x="68" y="48" width="14" height="14" rx="3" fill="#fb923c"/>
  </g>
  <path d="M63 42 v6" stroke="rgba(255,255,255,.5)" stroke-width="2" stroke-dasharray="2 3"/>
</svg>
