<svg viewBox="0 0 160 100" aria-hidden="true" fill="none" stroke-linecap="round">
  <rect x="36" y="6" width="88" height="88" rx="8" fill="rgba(0,0,0,.25)"/><path d="M80 6 V94 M36 50 H124" stroke="rgba(255,255,255,.5)" stroke-width="2"/><circle cx="44.0" cy="14.0" r="5.2" fill="#fff"/><circle cx="58.4" cy="14.0" r="5.2" fill="rgba(255,255,255,.2)"/><circle cx="72.8" cy="14.0" r="5.2" fill="rgba(255,255,255,.2)"/><circle cx="87.2" cy="14.0" r="5.2" fill="rgba(255,255,255,.2)"/><circle cx="101.6" cy="14.0" r="5.2" fill="#1e1b4b"/><circle cx="116.0" cy="14.0" r="5.2" fill="rgba(255,255,255,.2)"/><circle cx="44.0" cy="28.4" r="5.2" fill="rgba(255,255,255,.2)"/><circle cx="58.4" cy="28.4" r="5.2" fill="#fff"/><circle cx="72.8" cy="28.4" r="5.2" fill="rgba(255,255,255,.2)"/><circle cx="87.2" cy="28.4" r="5.2" fill="rgba(255,255,255,.2)"/><circle cx="101.6" cy="28.4" r="5.2" fill="rgba(255,255,255,.2)"/><circle cx="116.0" cy="28.4" r="5.2" fill="rgba(255,255,255,.2)"/><circle cx="44.0" cy="42.8" r="5.2" fill="rgba(255,255,255,.2)"/><circle cx="58.4" cy="42.8" r="5.2" fill="rgba(255,255,255,.2)"/><circle cx="72.8" cy="42.8" r="5.2" fill="#fff"/><circle cx="87.2" cy="42.8" r="5.2" fill="rgba(255,255,255,.2)"/><circle cx="101.6" cy="42.8" r="5.2" fill="rgba(255,255,255,.2)"/><circle cx="116.0" cy="42.8" r="5.2" fill="#1e1b4b"/><circle cx="44.0" cy="57.2" r="5.2" fill="rgba(255,255,255,.2)"/><circle cx="58.4" cy="57.2" r="5.2" fill="rgba(255,255,255,.2)"/><circle cx="72.8" cy="57.2" r="5.2" fill="rgba(255,255,255,.2)"/><circle cx="87.2" cy="57.2" r="5.2" fill="#fff"/><circle cx="101.6" cy="57.2" r="5.2" fill="rgba(255,255,255,.2)"/><circle cx="116.0" cy="57.2" r="5.2" fill="rgba(255,255,255,.2)"/><circle cx="44.0" cy="71.6" r="5.2" fill="rgba(255,255,255,.2)"/><circle cx="58.4" cy="71.6" r="5.2" fill="rgba(255,255,255,.2)"/><circle cx="72.8" cy="71.6" r="5.2" fill="#1e1b4b"/><circle cx="87.2" cy="71.6" r="5.2" fill="rgba(255,255,255,.2)"/><circle cx="101.6" cy="71.6" r="5.2" fill="rgba(255,255,255,.2)"/><circle cx="116.0" cy="71.6" r="5.2" fill="rgba(255,255,255,.2)"/><circle cx="44.0" cy="86.0" r="5.2" fill="rgba(255,255,255,.2)"/><circle cx="58.4" cy="86.0" r="5.2" fill="#fff"/><circle cx="72.8" cy="86.0" r="5.2" fill="rgba(255,255,255,.2)"/><circle cx="87.2" cy="86.0" r="5.2" fill="rgba(255,255,255,.2)"/><circle cx="101.6" cy="86.0" r="5.2" fill="rgba(255,255,255,.2)"/><circle cx="116.0" cy="86.0" r="5.2" fill="#1e1b4b"/><path d="M128 30 a16 16 0 0 1 0 40" stroke="#fde68a" stroke-width="3"/><path d="M128 70 l-6 -2 l4 -5" stroke="#fde68a" stroke-width="3"/>
</svg>
