<svg xmlns="http://www.w3.org/2000/svg" viewBox="0 0 160 100" aria-hidden="true" font-family="system-ui, sans-serif" font-weight="800" font-size="14" text-anchor="middle">
  <g fill="rgba(255,255,255,.9)">
    <rect x="36" y="12" width="24" height="24" rx="4"/>
    <rect x="100" y="12" width="24" height="24" rx="4"/>
    <rect x="36" y="64" width="24" height="24" rx="4"/>
    <rect x="68" y="64" width="24" height="24" rx="4"/>
  </g>
  <g fill="rgba(255,255,255,.2)">
    <rect x="68" y="12" width="24" height="24" rx="4"/>
    <rect x="36" y="38" width="24" height="24" rx="4"/>
    <rect x="68" y="38" width="24" height="24" rx="4"/>
    <rect x="100" y="38" width="24" height="24" rx="4"/>
    <rect x="100" y="64" width="24" height="24" rx="4"/>
  </g>
  <text x="80" y="29" fill="#93c5fd">1</text>
  <text x="48" y="55" fill="#86efac">2</text>
  <text x="112" y="55" fill="#fca5a5">3</text>
  <text x="112" y="81" fill="#93c5fd">1</text>
  <circle cx="80" cy="50" r="6" fill="#0f172a"/>
  <path d="M80 40v20M70 50h20M73 43l14 14M87 43l-14 14" stroke="#0f172a" stroke-width="2.5" stroke-linecap="round"/>
  <path d="M109 18v13" stroke="#334155" stroke-width="2"/>
  <path d="M109 18l9 4-9 4z" fill="#ef4444"/>
</svg>
