<svg xmlns="http://www.w3.org/2000/svg" viewBox="0 0 160 100" aria-hidden="true" fill="none" stroke-linecap="round">
  <rect x="30" y="6" width="100" height="88" rx="6" fill="rgba(255,255,255,.2)" stroke="rgba(255,255,255,.6)" stroke-width="2"/><rect x="48" y="24" width="64" height="52" rx="4" fill="rgba(0,0,0,.2)"/><rect x="32" y="8" width="14" height="6" fill="#ef4444"/><rect x="32" y="86" width="14" height="6" fill="#ec4899"/><rect x="48" y="8" width="14" height="6" fill="#f59e0b"/><rect x="48" y="86" width="14" height="6" fill="#a855f7"/><rect x="64" y="8" width="14" height="6" fill="#22c55e"/><rect x="64" y="86" width="14" height="6" fill="#3b82f6"/><rect x="80" y="8" width="14" height="6" fill="#3b82f6"/><rect x="80" y="86" width="14" height="6" fill="#22c55e"/><rect x="96" y="8" width="14" height="6" fill="#a855f7"/><rect x="96" y="86" width="14" height="6" fill="#f59e0b"/><rect x="112" y="8" width="14" height="6" fill="#ec4899"/><rect x="112" y="86" width="14" height="6" fill="#ef4444"/><text x="80" y="56" font-size="26" font-weight="900" text-anchor="middle" fill="#fde68a" font-family="system-ui,sans-serif">₽</text><circle cx="60" cy="16" r="4" fill="#fff"/><circle cx="100" cy="88" r="4" fill="#111"/>
</svg>
